<?xml version="1.0" encoding="UTF-8" standalone="no"?>
<svg
   xmlns:dc="http://purl.org/dc/elements/1.1/"
   xmlns:cc="http://creativecommons.org/ns#"
   xmlns:rdf="http://www.w3.org/1999/02/22-rdf-syntax-ns#"
   xmlns:svg="http://www.w3.org/2000/svg"
   xmlns="http://www.w3.org/2000/svg"
   version="1.1"
   id="svg2"
   viewBox="0 0 1052.3622 744.09448"
   height="210mm"
   width="297mm">
  <defs
     id="defs4" />
  <metadata
     id="metadata7">
    <rdf:RDF>
      <cc:Work
         rdf:about="">
        <dc:format>image/svg+xml</dc:format>
        <dc:type
           rdf:resource="http://purl.org/dc/dcmitype/StillImage" />
        <dc:title></dc:title>
      </cc:Work>
    </rdf:RDF>
  </metadata>
  <g
     transform="translate(0,-308.26772)"
     id="layer1">
    <path
       id="rect4136"
       d="m 80.844688,803.82977 671.314152,0 0,223.97443 -671.314152,0 z"
       style="fill:none;stroke:#000000;stroke-width:1.91418064;stroke-linecap:round;stroke-linejoin:round;stroke-miterlimit:4;stroke-dasharray:none;stroke-opacity:1" />
    <path
       id="rect4186"
       d="m 81.109754,893.95411 0,116.85369 670.784026,0 0,-116.85369 -670.784026,0 z"
       style="fill:#0a0404;fill-opacity:1;stroke:#000000;stroke-width:2.44423652;stroke-linecap:round;stroke-linejoin:round;stroke-miterlimit:4;stroke-dasharray:none;stroke-opacity:1" />
    <path
       id="rect4138"
       d="m 104.42565,933.73694 178.71449,0 0,67.10036 -178.71449,0 z"
       style="fill:#a99696;fill-opacity:1;stroke:#000000;stroke-width:1.99417245;stroke-linecap:round;stroke-linejoin:round;stroke-miterlimit:4;stroke-dasharray:none;stroke-opacity:1" />
    <path
       id="rect4138-5"
       d="m 327.66571,933.73694 178.71449,0 0,67.10036 -178.71449,0 z"
       style="fill:#a99696;fill-opacity:1;stroke:#000000;stroke-width:1.99417245;stroke-linecap:round;stroke-linejoin:round;stroke-miterlimit:4;stroke-dasharray:none;stroke-opacity:1" />
    <path
       id="rect4138-51"
       d="m 550.90576,933.73694 178.71449,0 0,67.10036 -178.71449,0 z"
       style="fill:#a99696;fill-opacity:1;stroke:#000000;stroke-width:1.99417245;stroke-linecap:round;stroke-linejoin:round;stroke-miterlimit:4;stroke-dasharray:none;stroke-opacity:1" />
    <path
       id="rect4161"
       d="m 104.37539,827.39368 178.81502,0 0,35.31108 -178.81502,0 z"
       style="fill:#f60505;fill-opacity:1;stroke:#f40606;stroke-width:1.89363933;stroke-linecap:round;stroke-linejoin:round;stroke-miterlimit:4;stroke-dasharray:none;stroke-opacity:1" />
    <path
       id="rect4161-7"
       d="m 327.61542,827.39368 178.81502,0 0,35.31108 -178.81502,0 z"
       style="fill:#fcf706;fill-opacity:1;stroke:#f9f907;stroke-width:1.89363933;stroke-linecap:round;stroke-linejoin:round;stroke-miterlimit:4;stroke-dasharray:none;stroke-opacity:1" />
    <path
       id="rect4161-6"
       d="m 550.85547,827.39368 178.81502,0 0,35.31108 -178.81502,0 z"
       style="fill:#fc0808;fill-opacity:1;stroke:#f20404;stroke-width:1.89363933;stroke-linecap:round;stroke-linejoin:round;stroke-miterlimit:4;stroke-dasharray:none;stroke-opacity:1" />
    <g
       id="text4192"
       style="font-style:normal;font-variant:normal;font-weight:normal;font-stretch:normal;font-size:17.5px;line-height:125%;font-family:'TeX Gyre Heros';-inkscape-font-specification:'TeX Gyre Heros, Normal';text-align:start;letter-spacing:0px;word-spacing:0px;writing-mode:lr-tb;text-anchor:start;fill:#f6770f;fill-opacity:1;stroke:none;stroke-width:1px;stroke-linecap:butt;stroke-linejoin:miter;stroke-opacity:1">
      <path
         id="path4233"
         style=""
         d="m 122.3775,912.15217 0,-1.435 -10.01,0 0,1.435 4.2,0 0,11.3225 1.6275,0 0,-11.3225 4.1825,0 z" />
      <path
         id="path4235"
         style=""
         d="m 130.00094,919.30967 c 0,-1.33 -0.105,-2.17 -0.3675,-2.8525 -0.595,-1.505 -1.995,-2.415 -3.71,-2.415 -2.555,0 -4.2,1.89 -4.2,4.9 0,3.01 1.5925,4.795 4.165,4.795 2.1,0 3.5525,-1.19 3.92,-3.045 l -1.47,0 c -0.4025,1.2075 -1.225,1.6975 -2.3975,1.6975 -1.5225,0 -2.66,-0.98 -2.695,-3.08 l 6.755,0 z m -1.5575,-1.295 c 0,0 0,0.07 -0.0175,0.105 l -5.145,0 c 0.1225,-1.6275 1.155,-2.73 2.625,-2.73 1.435,0 2.5375,1.19 2.5375,2.625 z" />
      <path
         id="path4237"
         style=""
         d="m 144.06465,923.47467 0,-6.8775 c 0,-1.645 -0.91,-2.555 -2.625,-2.555 -1.225,0 -1.96,0.3675 -2.8175,1.4 -0.5425,-0.98 -1.2775,-1.4 -2.4675,-1.4 -1.225,0 -2.03,0.455 -2.8175,1.5575 l 0,-1.295 -1.33,0 0,9.17 1.4525,0 0,-5.7575 c 0,-1.33 0.9625,-2.3975 2.1525,-2.3975 1.085,0 1.6975,0.665 1.6975,1.8375 l 0,6.3175 1.4525,0 0,-5.7575 c 0,-1.33 0.98,-2.3975 2.17,-2.3975 1.0675,0 1.68,0.6825 1.68,1.8375 l 0,6.3175 1.4525,0 z" />
      <path
         id="path4239"
         style=""
         d="m 154.61441,918.97717 c 0,-3.08 -1.505,-4.935 -3.9375,-4.935 -1.2425,0 -2.24,0.56 -2.9225,1.645 l 0,-1.3825 -1.33,0 0,12.985 1.4525,0 0,-4.9175 c 0.77,0.945 1.6275,1.365 2.8175,1.365 2.3625,0 3.92,-1.8375 3.92,-4.76 z m -1.5225,-0.035 c 0,2.0825 -1.0675,3.43 -2.66,3.43 -1.54,0 -2.555,-1.26 -2.555,-3.4125 0,-2.1525 1.015,-3.5525 2.555,-3.5525 1.61,0 2.66,1.3475 2.66,3.535 z" />
      <path
         id="path4241"
         style=""
         d="m 164.18062,919.30967 c 0,-1.33 -0.105,-2.17 -0.36749,-2.8525 -0.59501,-1.505 -1.99501,-2.415 -3.71001,-2.415 -2.555,0 -4.2,1.89 -4.2,4.9 0,3.01 1.5925,4.795 4.165,4.795 2.1,0 3.5525,-1.19 3.92,-3.045 l -1.47,0 c -0.4025,1.2075 -1.225,1.6975 -2.3975,1.6975 -1.5225,0 -2.66,-0.98 -2.695,-3.08 l 6.755,0 z m -1.5575,-1.295 c 0,0 0,0.07 -0.0175,0.105 l -5.145,0 c 0.1225,-1.6275 1.155,-2.73 2.625,-2.73 1.435,0 2.5375,1.19 2.5375,2.625 z" />
      <path
         id="path4243"
         style=""
         d="m 170.56184,915.58217 0,-1.4875 c -0.245,-0.035 -0.3675,-0.0525 -0.56,-0.0525 -0.945,0 -1.6625,0.56 -2.5025,1.925 l 0,-1.6625 -1.33,0 0,9.17 1.4525,0 0,-4.76 c 0,-2.065 0.6825,-3.0975 2.94,-3.1325 z" />
      <path
         id="path4245"
         style=""
         d="m 180.04902,923.43967 0,-1.1025 c -0.1575,0.035 -0.2275,0.035 -0.315,0.035 -0.5075,0 -0.7875,-0.2625 -0.7875,-0.7175 l 0,-5.11 c 0,-1.6275 -1.19,-2.5025 -3.4475,-2.5025 -2.2225,0 -3.5875,0.8575 -3.675,2.975 l 1.47,0 c 0.1225,-1.12 0.7875,-1.6275 2.1525,-1.6275 1.3125,0 2.0475,0.49 2.0475,1.365 l 0,0.385 c 0,0.6125 -0.3675,0.875 -1.5225,1.015 -2.065,0.2625 -2.38,0.3325 -2.94,0.56 -1.0675,0.4375 -1.61,1.26 -1.61,2.38 0,1.6625 1.155,2.6425 3.01,2.6425 1.1725,0 2.31,-0.49 3.115,-1.3475 0.1575,0.7 0.7875,1.2075 1.505,1.2075 0.2975,0 0.525,-0.035 0.9975,-0.1575 z m -2.555,-3.1325 c 0,1.3125 -1.33,2.1525 -2.7475,2.1525 -1.1375,0 -1.8025,-0.4025 -1.8025,-1.4 0,-0.9625 0.6475,-1.3825 2.205,-1.61 1.54,-0.21 1.855,-0.28 2.345,-0.5075 l 0,1.365 z" />
      <path
         id="path4247"
         style=""
         d="m 184.87273,923.47467 0,-1.225 c -0.1925,0.0525 -0.42,0.07 -0.7,0.07 -0.63,0 -0.805,-0.175 -0.805,-0.8225 l 0,-6.0025 1.505,0 0,-1.19 -1.505,0 0,-2.52 -1.4525,0 0,2.52 -1.2425,0 0,1.19 1.2425,0 0,6.65 c 0,0.9275 0.63,1.4525 1.7675,1.4525 0.35,0 0.7,-0.035 1.19,-0.1225 z" />
      <path
         id="path4249"
         style=""
         d="m 193.71625,923.47467 0,-9.17 -1.4525,0 0,5.0575 c 0,1.8725 -0.98,3.0975 -2.5025,3.0975 -1.155,0 -1.89,-0.7 -1.89,-1.8025 l 0,-6.3525 -1.4525,0 0,6.93 c 0,1.5225 1.1375,2.5025 2.9225,2.5025 1.3475,0 2.205,-0.4725 3.0625,-1.68 l 0,1.4175 1.3125,0 z" />
      <path
         id="path4251"
         style=""
         d="m 200.63996,915.58217 0,-1.4875 c -0.245,-0.035 -0.3675,-0.0525 -0.56,-0.0525 -0.945,0 -1.6625,0.56 -2.5025,1.925 l 0,-1.6625 -1.33,0 0,9.17 1.4525,0 0,-4.76 c 0,-2.065 0.6825,-3.0975 2.94,-3.1325 z" />
      <path
         id="path4253"
         style=""
         d="m 214.94922,927.18467 0,-1.26 -1.8025,0 0,-13.9475 1.8025,0 0,-1.26 -3.255,0 0,16.4675 3.255,0 z" />
      <path
         id="path4255"
         style=""
         d="m 221.48273,913.72717 c 0,-1.4525 -1.1025,-2.555 -2.555,-2.555 -1.4525,0 -2.555,1.1025 -2.555,2.555 0,1.4525 1.1025,2.555 2.555,2.555 1.4525,0 2.555,-1.1025 2.555,-2.555 z m -0.84,0 c 0,0.9275 -0.7875,1.8025 -1.715,1.8025 -0.9275,0 -1.715,-0.875 -1.715,-1.8025 0,-0.9275 0.7875,-1.8025 1.715,-1.8025 0.9275,0 1.715,0.875 1.715,1.8025 z" />
      <path
         id="path4257"
         style=""
         d="m 234.28207,918.81967 -1.68,0 c -0.385,2.415 -1.4,3.535 -3.5525,3.535 -2.5375,0 -4.1475,-1.9425 -4.1475,-5.1275 0,-3.2725 1.54,-5.39 4.0075,-5.39 1.995,0 3.045,0.8925 3.4475,2.835 l 1.6625,0 c -0.5075,-2.8 -2.1175,-4.27 -4.9175,-4.27 -3.8675,0 -5.8275,3.115 -5.8275,6.8425 0,3.7275 2.0125,6.545 5.7575,6.545 3.115,0 4.865,-1.645 5.25,-4.97 z" />
      <path
         id="path4259"
         style=""
         d="m 238.73855,927.18467 0,-16.4675 -3.255,0 0,1.26 1.8025,0 0,13.9475 -1.8025,0 0,1.26 3.255,0 z" />
    </g>
    <g
       id="text4196"
       style="font-style:normal;font-variant:normal;font-weight:normal;font-stretch:normal;font-size:17.5px;line-height:125%;font-family:'TeX Gyre Heros';-inkscape-font-specification:'TeX Gyre Heros, Normal';text-align:start;letter-spacing:0px;word-spacing:0px;writing-mode:lr-tb;text-anchor:start;fill:#f6770f;fill-opacity:1;stroke:none;stroke-width:1px;stroke-linecap:butt;stroke-linejoin:miter;stroke-opacity:1">
      <path
         id="path4262"
         style=""
         d="m 343.3275,923.47467 0,-1.435 -6.3,0 0,-11.3225 -1.6275,0 0,12.7575 7.9275,0 z" />
      <path
         id="path4264"
         style=""
         d="m 352.07367,923.47467 0,-9.17 -1.4525,0 0,5.0575 c 0,1.8725 -0.98,3.0975 -2.5025,3.0975 -1.155,0 -1.89,-0.7 -1.89,-1.8025 l 0,-6.3525 -1.4525,0 0,6.93 c 0,1.5225 1.1375,2.5025 2.9225,2.5025 1.3475,0 2.205,-0.4725 3.0625,-1.68 l 0,1.4175 1.3125,0 z" />
      <path
         id="path4266"
         style=""
         d="m 357.89488,915.49467 0,-1.19 -1.5225,0 0,-1.435 c 0,-0.6125 0.35,-0.9275 1.015,-0.9275 0.1225,0 0.175,0 0.5075,0.0175 l 0,-1.2075 c -0.3325,-0.07 -0.525,-0.0875 -0.8225,-0.0875 -1.3475,0 -2.1525,0.77 -2.1525,2.0825 l 0,1.5575 -1.225,0 0,1.19 1.225,0 0,7.98 1.4525,0 0,-7.98 1.5225,0 z" />
      <path
         id="path4268"
         style=""
         d="m 363.12273,923.47467 0,-1.225 c -0.1925,0.0525 -0.42,0.07 -0.7,0.07 -0.63,0 -0.805,-0.175 -0.805,-0.8225 l 0,-6.0025 1.505,0 0,-1.19 -1.505,0 0,-2.52 -1.4525,0 0,2.52 -1.2425,0 0,1.19 1.2425,0 0,6.65 c 0,0.9275 0.63,1.4525 1.7675,1.4525 0.35,0 0.7,-0.035 1.19,-0.1225 z" />
      <path
         id="path4270"
         style=""
         d="m 368.04625,915.49467 0,-1.19 -1.5225,0 0,-1.435 c 0,-0.6125 0.35,-0.9275 1.015,-0.9275 0.1225,0 0.175,0 0.5075,0.0175 l 0,-1.2075 c -0.3325,-0.07 -0.525,-0.0875 -0.8225,-0.0875 -1.3475,0 -2.1525,0.77 -2.1525,2.0825 l 0,1.5575 -1.225,0 0,1.19 1.225,0 0,7.98 1.4525,0 0,-7.98 1.5225,0 z" />
      <path
         id="path4272"
         style=""
         d="m 377.08883,919.30967 c 0,-1.33 -0.105,-2.17 -0.3675,-2.8525 -0.595,-1.505 -1.995,-2.415 -3.71,-2.415 -2.555,0 -4.2,1.89 -4.2,4.9 0,3.01 1.5925,4.795 4.165,4.795 2.1,0 3.5525,-1.19 3.92,-3.045 l -1.47,0 c -0.4025,1.2075 -1.225,1.6975 -2.3975,1.6975 -1.5225,0 -2.66,-0.98 -2.695,-3.08 l 6.755,0 z m -1.5575,-1.295 c 0,0 0,0.07 -0.0175,0.105 l -5.145,0 c 0.1225,-1.6275 1.155,-2.73 2.625,-2.73 1.435,0 2.5375,1.19 2.5375,2.625 z" />
      <path
         id="path4274"
         style=""
         d="m 386.28754,923.47467 0,-9.17 -1.4525,0 0,5.0575 c 0,1.8725 -0.98,3.0975 -2.5025,3.0975 -1.155,0 -1.89,-0.7 -1.89,-1.8025 l 0,-6.3525 -1.4525,0 0,6.93 c 0,1.5225 1.1375,2.5025 2.9225,2.5025 1.3475,0 2.205,-0.4725 3.0625,-1.68 l 0,1.4175 1.3125,0 z" />
      <path
         id="path4276"
         style=""
         d="m 395.94125,920.32467 -1.47,0 c -0.245,1.47 -0.9975,2.065 -2.24,2.065 -1.61,0 -2.5725,-1.2425 -2.5725,-3.4125 0,-2.2925 0.945,-3.5875 2.5375,-3.5875 1.225,0 1.995,0.7175 2.17,1.995 l 1.47,0 c -0.175,-2.24 -1.575,-3.3425 -3.6225,-3.3425 -2.4675,0 -4.0775,1.89 -4.0775,4.935 0,2.9575 1.575,4.76 4.06,4.76 2.1875,0 3.57,-1.3125 3.745,-3.4125 z" />
      <path
         id="path4278"
         style=""
         d="m 404.84875,923.47467 0,-6.93 c 0,-1.54 -1.1025,-2.5025 -2.8875,-2.5025 -1.295,0 -2.0825,0.4025 -2.94,1.5225 l 0,-4.8475 -1.4525,0 0,12.7575 1.4525,0 0,-5.0575 c 0,-1.8725 0.98,-3.0975 2.485,-3.0975 1.0325,0 1.89,0.595 1.89,1.8025 l 0,6.3525 1.4525,0 z" />
      <path
         id="path4280"
         style=""
         d="m 410.52996,923.47467 0,-1.225 c -0.1925,0.0525 -0.42,0.07 -0.7,0.07 -0.63,0 -0.805,-0.175 -0.805,-0.8225 l 0,-6.0025 1.505,0 0,-1.19 -1.505,0 0,-2.52 -1.4525,0 0,2.52 -1.2425,0 0,1.19 1.2425,0 0,6.65 c 0,0.9275 0.63,1.4525 1.7675,1.4525 0.35,0 0.7,-0.035 1.19,-0.1225 z" />
      <path
         id="path4282"
         style=""
         d="m 413.61598,923.47467 0,-9.17 -1.4525,0 0,9.17 1.4525,0 z m 0.1925,-10.5525 0,-1.82 -1.82,0 0,1.82 1.82,0 z" />
      <path
         id="path4284"
         style=""
         d="m 423.39246,921.96967 0,-7.665 -1.3475,0 0,1.33 c -0.735,-1.085 -1.6275,-1.5925 -2.8,-1.5925 -2.3275,0 -3.9025,1.96 -3.9025,4.935 0,2.8875 1.6275,4.76 3.78,4.76 1.155,0 1.96,-0.49 2.9225,-1.645 l 0,0.6125 c 0,2.4325 -0.9975,3.36 -2.695,3.36 -1.155,0 -2.0475,-0.42 -2.2225,-1.54 l -1.4875,0 c 0.1575,1.7325 1.505,2.765 3.6575,2.765 2.87,0 4.095,-1.2775 4.095,-5.32 z m -1.4875,-3.0275 c 0,2.1875 -0.945,3.4475 -2.485,3.4475 -1.5925,0 -2.555,-1.2775 -2.555,-3.5 0,-2.205 0.98,-3.5 2.5375,-3.5 1.575,0 2.5025,1.33 2.5025,3.5525 z" />
      <path
         id="path4286"
         style=""
         d="m 433.36117,923.47467 -3.745,-6.0025 3.185,-3.1675 -1.8725,0 -3.885,3.885 0,-7.4725 -1.4525,0 0,12.7575 1.4525,0 0,-3.57 1.4175,-1.4 3.0975,4.97 1.8025,0 z" />
      <path
         id="path4288"
         style=""
         d="m 441.96188,919.30967 c 0,-1.33 -0.10501,-2.17 -0.3675,-2.8525 -0.59501,-1.505 -1.99501,-2.415 -3.71001,-2.415 -2.55499,0 -4.2,1.89 -4.2,4.9 0,3.01 1.59251,4.795 4.165,4.795 2.1,0 3.55251,-1.19 3.92001,-3.045 l -1.47001,0 c -0.40249,1.2075 -1.225,1.6975 -2.39749,1.6975 -1.52251,0 -2.66001,-0.98 -2.695,-3.08 l 6.755,0 z m -1.5575,-1.295 c 0,0 0,0.07 -0.0175,0.105 l -5.145,0 c 0.1225,-1.6275 1.15501,-2.73 2.625,-2.73 1.435,0 2.53751,1.19 2.53751,2.625 z" />
      <path
         id="path4290"
         style=""
         d="m 445.40309,923.47467 0,-9.17 -1.4525,0 0,9.17 1.4525,0 z m 0.1925,-10.5525 0,-1.82 -1.82,0 0,1.82 1.82,0 z" />
      <path
         id="path4292"
         style=""
         d="m 451.06707,923.47467 0,-1.225 c -0.1925,0.0525 -0.42,0.07 -0.7,0.07 -0.63,0 -0.805,-0.175 -0.805,-0.8225 l 0,-6.0025 1.505,0 0,-1.19 -1.505,0 0,-2.52 -1.4525,0 0,2.52 -1.2425,0 0,1.19 1.2425,0 0,6.65 c 0,0.9275 0.63,1.4525 1.7675,1.4525 0.35,0 0.7,-0.035 1.19,-0.1225 z" />
      <path
         id="path4294"
         style=""
         d="m 465.55762,927.18467 0,-1.26 -1.8025,0 0,-13.9475 1.8025,0 0,-1.26 -3.255,0 0,16.4675 3.255,0 z" />
      <path
         id="path4296"
         style=""
         d="m 472.51113,914.51467 c 0,-1.6975 -1.3125,-3.0275 -2.9925,-3.0275 -1.6275,0 -2.975,1.3475 -2.975,2.9925 0,1.645 1.3475,2.9925 2.9925,2.9925 1.6275,0 2.975,-1.3475 2.975,-2.9575 z m -1.2075,-0.0175 c 0,0.9625 -0.805,1.75 -1.7675,1.75 -0.98,0 -1.785,-0.805 -1.785,-1.7675 0,-0.98 0.805,-1.7675 1.7675,-1.7675 0.9975,0 1.785,0.7875 1.785,1.785 z m 6.545,-3.43 -1.155,0 -6.9125,12.7575 1.155,0 6.9125,-12.7575 z m 3.22,9.7825 c 0,-1.68 -1.3125,-3.01 -2.9925,-3.01 -1.6275,0 -2.975,1.3475 -2.975,2.975 0,1.645 1.3475,2.9925 2.9925,2.9925 1.61,0 2.975,-1.3475 2.975,-2.9575 z m -1.2075,0 c 0,0.945 -0.805,1.7325 -1.7675,1.7325 -0.98,0 -1.785,-0.7875 -1.785,-1.7675 0,-0.9625 0.805,-1.75 1.7675,-1.75 0.9975,0 1.785,0.7875 1.785,1.785 z" />
      <path
         id="path4298"
         style=""
         d="m 485.24539,927.18467 0,-16.4675 -3.255,0 0,1.26 1.8025,0 0,13.9475 -1.8025,0 0,1.26 3.255,0 z" />
    </g>
    <g
       id="text4200"
       style="font-style:normal;font-variant:normal;font-weight:normal;font-stretch:normal;font-size:17.5px;line-height:125%;font-family:'TeX Gyre Heros';-inkscape-font-specification:'TeX Gyre Heros, Normal';text-align:start;letter-spacing:0px;word-spacing:0px;writing-mode:lr-tb;text-anchor:start;fill:#f6770f;fill-opacity:1;stroke:none;stroke-width:1px;stroke-linecap:butt;stroke-linejoin:miter;stroke-opacity:1">
      <path
         id="path4301"
         style=""
         d="m 569.6725,917.19221 c 0,-3.955 -1.96,-6.37 -5.1975,-6.37 l -4.9175,0 0,12.7575 4.9175,0 c 3.22,0 5.1975,-2.415 5.1975,-6.3875 z m -1.6275,0.0175 c 0,3.22 -1.33,4.935 -3.85,4.935 l -3.01,0 0,-9.8875 3.01,0 c 2.52,0 3.85,1.6975 3.85,4.9525 z" />
      <path
         id="path4303"
         style=""
         d="m 576.26398,915.68721 0,-1.4875 c -0.245,-0.035 -0.3675,-0.0525 -0.56,-0.0525 -0.945,0 -1.6625,0.56 -2.5025,1.925 l 0,-1.6625 -1.33,0 0,9.17 1.4525,0 0,-4.76 c 0,-2.065 0.6825,-3.0975 2.94,-3.1325 z" />
      <path
         id="path4305"
         style=""
         d="m 584.92621,923.57971 0,-9.17 -1.4525,0 0,5.0575 c 0,1.8725 -0.98,3.0975 -2.5025,3.0975 -1.155,0 -1.89,-0.7 -1.89,-1.8025 l 0,-6.3525 -1.4525,0 0,6.93 c 0,1.5225 1.1375,2.5025 2.9225,2.5025 1.3475,0 2.205,-0.4725 3.0625,-1.68 l 0,1.4175 1.3125,0 z" />
      <path
         id="path4307"
         style=""
         d="m 594.57992,920.42971 -1.47,0 c -0.245,1.47 -0.9975,2.065 -2.24,2.065 -1.61,0 -2.5725,-1.2425 -2.5725,-3.4125 0,-2.2925 0.945,-3.5875 2.5375,-3.5875 1.225,0 1.995,0.7175 2.17,1.995 l 1.47,0 c -0.175,-2.24 -1.575,-3.3425 -3.6225,-3.3425 -2.4675,0 -4.0775,1.89 -4.0775,4.935 0,2.9575 1.575,4.76 4.06,4.76 2.1875,0 3.57,-1.3125 3.745,-3.4125 z" />
      <path
         id="path4309"
         style=""
         d="m 603.86996,923.57971 -3.745,-6.0025 3.185,-3.1675 -1.8725,0 -3.885,3.885 0,-7.4725 -1.4525,0 0,12.7575 1.4525,0 0,-3.57 1.4175,-1.4 3.0975,4.97 1.8025,0 z" />
      <path
         id="path4311"
         style=""
         d="m 617.91699,927.28971 0,-1.26 -1.8025,0 0,-13.9475 1.8025,0 0,-1.26 -3.255,0 0,16.4675 3.255,0 z" />
      <path
         id="path4313"
         style=""
         d="m 626.90051,923.57971 0,-6.93 c 0,-1.54 -1.1025,-2.5025 -2.8875,-2.5025 -1.295,0 -2.0825,0.4025 -2.94,1.5225 l 0,-4.8475 -1.4525,0 0,12.7575 1.4525,0 0,-5.0575 c 0,-1.8725 0.98,-3.0975 2.485,-3.0975 1.0325,0 1.89,0.595 1.89,1.8025 l 0,6.3525 1.4525,0 z" />
      <path
         id="path4315"
         style=""
         d="m 638.93422,914.56721 c 0,-2.3975 -1.4175,-3.745 -3.9375,-3.745 l -5.2675,0 0,12.7575 1.6275,0 0,-5.4075 4.0075,0 c 2.1,0 3.57,-1.4875 3.57,-3.605 z m -1.6975,-0.07 c 0,1.4 -0.9275,2.24 -2.485,2.24 l -3.395,0 0,-4.48 3.395,0 c 1.5575,0 2.485,0.84 2.485,2.24 z" />
      <path
         id="path4317"
         style=""
         d="m 648.67598,923.54471 0,-1.1025 c -0.1575,0.035 -0.2275,0.035 -0.315,0.035 -0.5075,0 -0.7875,-0.2625 -0.7875,-0.7175 l 0,-5.11 c 0,-1.6275 -1.19,-2.5025 -3.4475,-2.5025 -2.2225,0 -3.5875,0.8575 -3.675,2.975 l 1.47,0 c 0.1225,-1.12 0.7875,-1.6275 2.1525,-1.6275 1.3125,0 2.0475,0.49 2.0475,1.365 l 0,0.385 c 0,0.6125 -0.3675,0.875 -1.5225,1.015 -2.065,0.2625 -2.38,0.3325 -2.94,0.56 -1.0675,0.4375 -1.61,1.26 -1.61,2.38 0,1.6625 1.155,2.6425 3.01,2.6425 1.1725,0 2.31,-0.49 3.115,-1.3475 0.1575,0.7 0.7875,1.2075 1.505,1.2075 0.2975,0 0.525,-0.035 0.9975,-0.1575 z m -2.555,-3.1325 c 0,1.3125 -1.33,2.1525 -2.7475,2.1525 -1.1375,0 -1.8025,-0.4025 -1.8025,-1.4 0,-0.9625 0.6475,-1.3825 2.205,-1.61 1.54,-0.21 1.855,-0.28 2.345,-0.5075 l 0,1.365 z" />
      <path
         id="path4319"
         style=""
         d="m 652.71219,927.28971 0,-16.4675 -3.255,0 0,1.26 1.8025,0 0,13.9475 -1.8025,0 0,1.26 3.255,0 z" />
    </g>
  </g>
</svg>
